<svg width="24" height="24" viewBox="0 0 24 24" fill="none" xmlns="http://www.w3.org/2000/svg">
<path d="M12 5.14286C11.1524 5.14286 10.3238 5.39421 9.61899 5.86513C8.9142 6.33605 8.36489 7.00539 8.04052 7.7885C7.71614 8.57161 7.63127 9.43332 7.79664 10.2647C7.962 11.096 8.37018 11.8597 8.96954 12.459C9.56891 13.0584 10.3326 13.4666 11.1639 13.6319C11.9952 13.7973 12.857 13.7124 13.6401 13.3881C14.4232 13.0637 15.0925 12.5144 15.5634 11.8096C16.0344 11.1048 16.2857 10.2762 16.2857 9.42857C16.2857 8.29193 15.8342 7.20184 15.0305 6.39811C14.2267 5.59439 13.1366 5.14286 12 5.14286Z" fill="#D0D0D0"/>
<path d="M12 0C9.62663 0 7.30655 0.703788 5.33316 2.02236C3.35977 3.34094 1.8217 5.21509 0.913451 7.4078C0.00519937 9.60051 -0.232441 12.0133 0.230582 14.3411C0.693605 16.6689 1.83649 18.807 3.51472 20.4853C5.19295 22.1635 7.33115 23.3064 9.65892 23.7694C11.9867 24.2324 14.3995 23.9948 16.5922 23.0866C18.7849 22.1783 20.6591 20.6402 21.9776 18.6668C23.2962 16.6935 24 14.3734 24 12C23.9964 8.81851 22.7309 5.76838 20.4813 3.51873C18.2316 1.26908 15.1815 0.00362976 12 0ZM19 20.5C18.9834 19.3754 18.3765 17.4533 17.5758 16.6634C16.7752 15.8735 15.6961 15.43 14.5714 15.4286H9.42858C8.30403 15.4302 7.22519 15.8739 6.42474 16.6637C5.62429 17.4536 5.3498 19.3756 5.33316 20.5C3.77879 19.1121 1.99277 16.4356 1.5 14.4109C1.00723 12.3861 1.25725 9.94699 2 8C2.74275 6.05301 3.78387 4.18209 5.5 3C7.21613 1.81791 9.91615 1 12 1C14.0839 1 16.2839 1.81791 18 3C19.7161 4.18209 21.2573 6.05301 22 8C22.7427 9.94699 22.9928 12.3861 22.5 14.4109C22.0072 16.4356 20.5544 19.1121 19 20.5Z" fill="#D0D0D0"/>
</svg>
