<svg width="20" height="20" viewBox="0 0 20 20" fill="none" xmlns="http://www.w3.org/2000/svg">
<rect width="20" height="20" rx="10" fill="#1FCFE6"/>
<path d="M6.41211 14.9262C5.4712 14.9262 4.66739 14.6004 4.00068 13.949C3.33397 13.2976 3.00041 12.5015 3 11.5606C3 10.7541 3.24298 10.0355 3.72895 9.40473C4.21492 8.77401 4.85081 8.37076 5.63663 8.19498C5.89513 7.24372 6.41211 6.47341 7.18759 5.88405C7.96308 5.29468 8.84195 5 9.82423 5C11.034 5 12.0603 5.42145 12.9032 6.26434C13.7461 7.10724 14.1673 8.13336 14.1669 9.34269C14.8804 9.42541 15.4724 9.73312 15.9431 10.2658C16.4137 10.7985 16.6489 11.4214 16.6485 12.1344C16.6485 12.9099 16.3771 13.5692 15.8345 14.1122C15.2919 14.6552 14.6326 14.9266 13.8567 14.9262H6.41211Z" fill="white"/>
<path d="M6.33856 12V11.3637L7.82539 9.98697C7.95184 9.8646 8.0579 9.75447 8.14356 9.65657C8.23058 9.55867 8.29652 9.46281 8.34139 9.36899C8.38626 9.27382 8.4087 9.17116 8.4087 9.06102C8.4087 8.93865 8.38082 8.83328 8.32507 8.7449C8.26933 8.65516 8.19318 8.58649 8.09665 8.5389C8.00011 8.48995 7.89065 8.46548 7.76828 8.46548C7.64047 8.46548 7.52897 8.49131 7.4338 8.54298C7.33862 8.59465 7.26519 8.66875 7.21353 8.76529C7.16186 8.86183 7.13602 8.97672 7.13602 9.10997H6.29777C6.29777 8.83667 6.35964 8.59941 6.48337 8.39817C6.6071 8.19694 6.78046 8.04125 7.00345 7.93112C7.22644 7.82098 7.48342 7.76592 7.7744 7.76592C8.07353 7.76592 8.33391 7.81894 8.55554 7.925C8.77853 8.0297 8.95189 8.17518 9.07563 8.36146C9.19936 8.54774 9.26122 8.76121 9.26122 9.00188C9.26122 9.1596 9.22995 9.31529 9.1674 9.46893C9.10622 9.62258 8.99676 9.79322 8.83904 9.98086C8.68131 10.1671 8.459 10.3908 8.17211 10.6519L7.56229 11.2494V11.278H9.31629V12H6.33856ZM9.80323 11.2658V10.5703L11.547 7.82302H12.1467V8.78569H11.7918L10.6925 10.5254V10.558H13.1705V11.2658H9.80323ZM11.8081 12V11.0537L11.8244 10.7457V7.82302H12.6525V12H11.8081Z" fill="black"/>
</svg>
