<svg width="13" height="13" viewBox="0 0 13 13" fill="none" xmlns="http://www.w3.org/2000/svg">
<path d="M11.7812 13H1.21875C0.544375 13 0 12.464 0 11.8V2.2C0 1.536 0.544375 1 1.21875 1H11.7812C12.4556 1 13 1.536 13 2.2V11.8C13 12.464 12.4556 13 11.7812 13ZM1.21875 1.8C0.99125 1.8 0.8125 1.976 0.8125 2.2V11.8C0.8125 12.024 0.99125 12.2 1.21875 12.2H11.7812C12.0087 12.2 12.1875 12.024 12.1875 11.8V2.2C12.1875 1.976 12.0087 1.8 11.7812 1.8H1.21875Z" fill="white"/>
<path d="M3.65625 3.33333C3.42875 3.33333 3.25 3.15 3.25 2.91667V0.416667C3.25 0.183333 3.42875 0 3.65625 0C3.88375 0 4.0625 0.183333 4.0625 0.416667V2.91667C4.0625 3.15 3.88375 3.33333 3.65625 3.33333ZM9.34375 3.33333C9.11625 3.33333 8.9375 3.15 8.9375 2.91667V0.416667C8.9375 0.183333 9.11625 0 9.34375 0C9.57125 0 9.75 0.183333 9.75 0.416667V2.91667C9.75 3.15 9.57125 3.33333 9.34375 3.33333ZM12.5938 5H0.40625C0.17875 5 0 4.81667 0 4.58333C0 4.35 0.17875 4.16667 0.40625 4.16667H12.5938C12.8212 4.16667 13 4.35 13 4.58333C13 4.81667 12.8212 5 12.5938 5Z" fill="white"/>
</svg>
