<svg width="20" height="20" viewBox="0 0 20 20" fill="none" xmlns="http://www.w3.org/2000/svg">
<rect width="20" height="20" rx="10" fill="#3D54FF"/>
<path fill-rule="evenodd" clip-rule="evenodd" d="M11.7832 5.24268C12.2253 5.24268 12.6923 5.39716 13.12 5.56768L13.4332 5.69601C14.1818 6.00973 14.6025 6.66805 14.9286 7.39113C15.458 8.56458 15.8258 10.129 15.953 11.3185C16.0136 11.8829 16.0284 12.4509 15.9197 12.833C15.8026 13.2411 15.4046 13.5299 15.0178 13.7569L14.8264 13.8656L14.628 13.9761C14.525 14.0331 14.421 14.0894 14.3161 14.1448L14.0059 14.3053L13.5799 14.5174L13.2371 14.6861C13.1671 14.7239 13.0901 14.7472 13.0109 14.7547C12.9317 14.7622 12.8518 14.7536 12.7759 14.7297C12.7001 14.7057 12.6298 14.6667 12.5693 14.615C12.5088 14.5633 12.4592 14.5 12.4237 14.4289C12.3881 14.3577 12.3671 14.2801 12.3621 14.2007C12.3571 14.1213 12.3681 14.0417 12.3944 13.9666C12.4207 13.8915 12.4619 13.8225 12.5154 13.7636C12.5689 13.7047 12.6337 13.6571 12.7059 13.6238L13.1753 13.3921L12.8307 13.0302C12.0048 13.3689 11.0322 13.5608 9.99897 13.5608C8.96574 13.5608 7.99311 13.3695 7.16724 13.0302L6.82263 13.3915L7.29379 13.6232C7.36363 13.6581 7.42591 13.7063 7.47708 13.7653C7.52824 13.8242 7.5673 13.8927 7.59202 13.9667C7.61674 14.0408 7.62663 14.119 7.62113 14.1968C7.61563 14.2747 7.59485 14.3507 7.55997 14.4205C7.5251 14.4904 7.47681 14.5526 7.41786 14.6038C7.35891 14.655 7.29047 14.694 7.21643 14.7188C7.06689 14.7687 6.90366 14.7572 6.76262 14.6867L6.4394 14.5263C6.20056 14.4075 5.96111 14.2898 5.72464 14.1656L5.17327 13.8656L4.98254 13.7569C4.59575 13.5299 4.19708 13.2411 4.08062 12.833C3.9713 12.4509 3.98675 11.8835 4.04676 11.3179C4.1739 10.129 4.54168 8.56458 5.07107 7.39113C5.39726 6.66805 5.81792 6.00973 6.56655 5.69601C7.06326 5.48806 7.66514 5.24268 8.21651 5.24268C8.57478 5.24268 8.85641 5.57243 8.80472 5.92417C9.20019 5.8664 9.5993 5.83721 9.99897 5.83683C10.4095 5.83683 10.8106 5.86653 11.1956 5.92476C11.1841 5.84039 11.1907 5.75454 11.215 5.67291C11.2392 5.59127 11.2804 5.51571 11.3361 5.45123C11.3917 5.38675 11.4603 5.33481 11.5375 5.29886C11.6147 5.2629 11.6981 5.24375 11.7832 5.24268ZM8.06797 9.10466C7.79221 9.10466 7.52774 9.21421 7.33275 9.4092C7.13775 9.60419 7.02821 9.86866 7.02821 10.1444C7.02821 10.4202 7.13775 10.6847 7.33275 10.8797C7.52774 11.0746 7.79221 11.1842 8.06797 11.1842C8.34374 11.1842 8.6082 11.0746 8.8032 10.8797C8.99819 10.6847 9.10774 10.4202 9.10774 10.1444C9.10774 9.86866 8.99819 9.60419 8.8032 9.4092C8.6082 9.21421 8.34374 9.10466 8.06797 9.10466ZM11.93 9.10466C11.6542 9.10466 11.3897 9.21421 11.1947 9.4092C10.9997 9.60419 10.8902 9.86866 10.8902 10.1444C10.8902 10.4202 10.9997 10.6847 11.1947 10.8797C11.3897 11.0746 11.6542 11.1842 11.93 11.1842C12.2057 11.1842 12.4702 11.0746 12.6652 10.8797C12.8602 10.6847 12.9697 10.4202 12.9697 10.1444C12.9697 9.86866 12.8602 9.60419 12.6652 9.4092C12.4702 9.21421 12.2057 9.10466 11.93 9.10466Z" fill="white"/>
</svg>
