<svg width="12" height="12" viewBox="0 0 12 12" fill="none" xmlns="http://www.w3.org/2000/svg">
<path d="M8.06499 2.1527L9.84748 3.93516M3.5 3.50017H1.625C1.45924 3.50017 1.30027 3.56602 1.18306 3.68322C1.06585 3.80043 1 3.9594 1 4.12515V10.375C1 10.5408 1.06585 10.6997 1.18306 10.8169C1.30027 10.9342 1.45924 11 1.625 11H8.49999C8.66575 11 8.82472 10.9342 8.94193 10.8169C9.05914 10.6997 9.12498 10.5408 9.12498 10.375V7.56258M10.6306 1.36897C10.7477 1.48603 10.8406 1.62502 10.904 1.77799C10.9674 1.93096 11 2.09493 11 2.26051C11 2.42609 10.9674 2.59005 10.904 2.74303C10.8406 2.896 10.7477 3.03499 10.6306 3.15205L6.35311 7.42946L4.12499 7.87507L4.57062 5.647L8.84811 1.36959C8.96508 1.25243 9.10401 1.15948 9.25694 1.09606C9.40987 1.03264 9.5738 1 9.73936 1C9.90492 1 10.0689 1.03264 10.2218 1.09606C10.3747 1.15948 10.5136 1.25243 10.6306 1.36959V1.36897Z" stroke="white" stroke-linecap="round" stroke-linejoin="round"/>
</svg>
