<svg width="14" height="12" viewBox="0 0 14 12" fill="none" xmlns="http://www.w3.org/2000/svg">
<path d="M12.25 0H1.25C0.918479 0 0.600537 0.131696 0.366117 0.366117C0.131696 0.600537 0 0.918479 0 1.25V10.25C0 10.5815 0.131696 10.8995 0.366117 11.1339C0.600537 11.3683 0.918479 11.5 1.25 11.5H12.25C12.5815 11.5 12.8995 11.3683 13.1339 11.1339C13.3683 10.8995 13.5 10.5815 13.5 10.25V1.25C13.5 0.918479 13.3683 0.600537 13.1339 0.366117C12.8995 0.131696 12.5815 0 12.25 0ZM1.5 4.25H3.25V5.5H1.5V4.25ZM3.25 1.5V2.75H1.5V1.5H3.25ZM1.5 7H3.25V10H1.5V7ZM12 10H4.75V1.5H12V10Z" fill="#D0D0D0"/>
</svg>
