<svg width="10" height="10" viewBox="0 0 10 10" fill="none" xmlns="http://www.w3.org/2000/svg">
<path d="M3.49903 6.50204L6.50204 3.49903M2.37256 4.62496L1.62194 5.37558C1.42476 5.57276 1.26835 5.80684 1.16164 6.06447C1.05492 6.3221 1 6.59823 1 6.87708C1 7.15594 1.05492 7.43206 1.16164 7.68969C1.26835 7.94732 1.42476 8.18141 1.62194 8.37859C1.81912 8.57577 2.05321 8.73218 2.31084 8.83889C2.56847 8.94561 2.84459 9.00053 3.12345 9.00053C3.40231 9.00053 3.67843 8.94561 3.93606 8.83889C4.19369 8.73218 4.42777 8.57577 4.62496 8.37859L5.37451 7.62797M4.62442 2.37256L5.37505 1.62194C5.57223 1.42476 5.80631 1.26835 6.06394 1.16164C6.32157 1.05492 6.59769 1 6.87655 1C7.15541 1 7.43153 1.05492 7.68916 1.16164C7.94679 1.26835 8.18088 1.42476 8.37806 1.62194C8.57524 1.81912 8.73165 2.05321 8.83836 2.31084C8.94508 2.56847 9 2.84459 9 3.12345C9 3.40231 8.94508 3.67843 8.83836 3.93606C8.73165 4.19369 8.57524 4.42777 8.37806 4.62496L7.62744 5.37558" stroke="white" stroke-opacity="0.5" stroke-width="1.0617" stroke-linecap="round" stroke-linejoin="round"/>
</svg>
