<svg width="10" height="10" viewBox="0 0 10 10" fill="none" xmlns="http://www.w3.org/2000/svg">
<path d="M3.70807 2.5805C3.58549 2.5805 3.46291 2.53534 3.36613 2.43856L2.09516 1.16759L0.824194 2.43856C0.637097 2.62566 0.327419 2.62566 0.140323 2.43856C-0.0467742 2.25146 -0.0467742 1.94179 0.140323 1.75469L1.75323 0.141787C1.94032 -0.0453093 2.25 -0.0453093 2.4371 0.141787L4.05 1.75469C4.2371 1.94179 4.2371 2.25146 4.05 2.43856C3.95323 2.53534 3.83065 2.5805 3.70807 2.5805Z" fill="white"/>
<path d="M2.0952 10C1.83068 10 1.61133 9.78064 1.61133 9.51613V0.483871C1.61133 0.219355 1.83068 0 2.0952 0C2.35972 0 2.57907 0.219355 2.57907 0.483871V9.51613C2.57907 9.78064 2.35972 10 2.0952 10ZM7.25649 10C7.13391 10 7.01133 9.95484 6.91456 9.85806L5.30165 8.24516C5.11456 8.05806 5.11456 7.74839 5.30165 7.56129C5.48875 7.37419 5.79843 7.37419 5.98552 7.56129L7.25649 8.83226L8.52746 7.56129C8.71456 7.37419 9.02424 7.37419 9.21133 7.56129C9.39843 7.74839 9.39843 8.05806 9.21133 8.24516L7.59843 9.85806C7.50165 9.95484 7.37907 10 7.25649 10Z" fill="white"/>
<path d="M7.25658 10C6.99206 10 6.77271 9.78064 6.77271 9.51613V0.483871C6.77271 0.219355 6.99206 0 7.25658 0C7.52109 0 7.74045 0.219355 7.74045 0.483871V9.51613C7.74045 9.78064 7.52109 10 7.25658 10Z" fill="white"/>
</svg>
