<svg width="17" height="18" viewBox="0 0 17 18" fill="none" xmlns="http://www.w3.org/2000/svg">
<path d="M8.5 0C6.6556 0 4.88674 0.711159 3.58256 1.97703C2.27837 3.2429 1.54569 4.95979 1.54569 6.75V10.3522L0.0551458 13.9718C0.00829919 14.0856 -0.009097 14.2088 0.00447945 14.3306C0.0180559 14.4525 0.0621911 14.5693 0.133023 14.6707C0.203856 14.7722 0.299227 14.8552 0.410791 14.9126C0.522356 14.9701 0.646714 15 0.772985 15H5.40919C5.40919 16.6628 6.78692 18 8.5 18C10.2131 18 11.5908 16.6628 11.5908 15H16.227C16.3533 15 16.4776 14.9701 16.5892 14.9126C16.7008 14.8552 16.7961 14.7722 16.867 14.6707C16.9378 14.5693 16.9819 14.4525 16.9955 14.3306C17.0091 14.2088 16.9917 14.0856 16.9449 13.9718L15.4543 10.3522V6.75C15.4543 4.95979 14.7216 3.2429 13.4174 1.97703C12.1133 0.711159 10.3444 0 8.5 0ZM10.0454 15C10.0454 15.834 9.35924 16.5 8.5 16.5C7.64076 16.5 6.9546 15.834 6.9546 15H10.0454ZM3.09109 6.75C3.09109 5.35761 3.66096 4.02226 4.67532 3.03769C5.68969 2.05312 7.06547 1.5 8.5 1.5C9.93453 1.5 11.3103 2.05312 12.3247 3.03769C13.339 4.02226 13.9089 5.35761 13.9089 6.75V10.4963C13.9088 10.5915 13.9274 10.686 13.9638 10.7745L15.0857 13.5H1.91427L3.03623 10.7745C3.07246 10.6862 3.09108 10.592 3.09109 10.497V6.75Z" fill="black"/>
</svg>
