<svg width="22" height="20" viewBox="0 0 22 20" fill="none" xmlns="http://www.w3.org/2000/svg">
<path d="M19.8862 7.02637H2.45278M19.8862 7.02637C20.2715 7.02637 20.641 6.86764 20.9135 6.58509C21.1859 6.30255 21.339 5.91935 21.339 5.51977V2.50659C21.339 2.10702 21.1859 1.72381 20.9135 1.44127C20.641 1.15873 20.2715 1 19.8862 1H2.45278C2.06748 1 1.69796 1.15873 1.42551 1.44127C1.15306 1.72381 1 2.10702 1 2.50659V5.51977C1 5.91935 1.15306 6.30255 1.42551 6.58509C1.69796 6.86764 2.06748 7.02637 2.45278 7.02637M19.8862 7.02637C20.2715 7.02637 20.641 7.1851 20.9135 7.46764C21.1859 7.75018 21.339 8.13338 21.339 8.53296V11.5461C21.339 11.9457 21.1859 12.3289 20.9135 12.6115C20.641 12.894 20.2715 13.0527 19.8862 13.0527M2.45278 7.02637C2.06748 7.02637 1.69796 7.1851 1.42551 7.46764C1.15306 7.75018 1 8.13338 1 8.53296V11.5461C1 11.9457 1.15306 12.3289 1.42551 12.6115C1.69796 12.894 2.06748 13.0527 2.45278 13.0527M19.8862 13.0527H2.45278M19.8862 13.0527C20.2715 13.0527 20.641 13.2115 20.9135 13.494C21.1859 13.7765 21.339 14.1597 21.339 14.5593V17.5725C21.339 17.9721 21.1859 18.3553 20.9135 18.6378C20.641 18.9204 20.2715 19.0791 19.8862 19.0791H2.45278C2.06748 19.0791 1.69796 18.9204 1.42551 18.6378C1.15306 18.3553 1 17.9721 1 17.5725V14.5593C1 14.1597 1.15306 13.7765 1.42551 13.494C1.69796 13.2115 2.06748 13.0527 2.45278 13.0527M3.17918 4.01318H7.53753M3.17918 10.0395H7.53753M3.17918 16.0659H7.53753" stroke="black" stroke-width="1.20527"/>
</svg>
