<svg width="18" height="21" viewBox="0 0 18 21" fill="none" xmlns="http://www.w3.org/2000/svg">
<path d="M5 1H2.33333C1.59695 1 1 1.59695 1 2.33333V18.3333C1 19.0697 1.59695 19.6667 2.33333 19.6667H5C5.73638 19.6667 6.33333 19.0697 6.33333 18.3333V2.33333C6.33333 1.59695 5.73638 1 5 1Z" stroke="black" stroke-width="1.33333" stroke-linecap="round"/>
<path d="M15.6667 1H13.0001C12.2637 1 11.6667 1.59695 11.6667 2.33333V18.3333C11.6667 19.0697 12.2637 19.6667 13.0001 19.6667H15.6667C16.4031 19.6667 17.0001 19.0697 17.0001 18.3333V2.33333C17.0001 1.59695 16.4031 1 15.6667 1Z" stroke="black" stroke-width="1.33333" stroke-linecap="round"/>
</svg>
