<svg width="16" height="13" viewBox="0 0 16 13" fill="none" xmlns="http://www.w3.org/2000/svg">
<path fill-rule="evenodd" clip-rule="evenodd" d="M8.31644 0.673833L9.40178 2.6H14.6667C15.0203 2.6 15.3594 2.73696 15.6095 2.98076C15.8595 3.22456 16 3.55522 16 3.9V11.7C16 12.0448 15.8595 12.3754 15.6095 12.6192C15.3594 12.863 15.0203 13 14.6667 13H1.33333C0.979711 13 0.640573 12.863 0.390524 12.6192C0.140476 12.3754 0 12.0448 0 11.7V1.3C0 0.955219 0.140476 0.624558 0.390524 0.380761C0.640573 0.136964 0.979711 0 1.33333 0H7.148C7.3868 4.92999e-06 7.62122 0.0625414 7.82676 0.181075C8.0323 0.299609 8.20142 0.469789 8.31644 0.673833ZM0.888889 1.3C0.888889 1.18507 0.935714 1.07485 1.01906 0.993587C1.10241 0.912321 1.21546 0.866667 1.33333 0.866667H7.148C7.22756 0.86668 7.30566 0.887516 7.37414 0.927C7.44263 0.966483 7.49898 1.02317 7.53733 1.09113L8.38756 2.6H0.888889V1.3Z" fill="white"/>
</svg>
