<svg width="12" height="16" viewBox="0 0 12 16" fill="none" xmlns="http://www.w3.org/2000/svg">
<path d="M11.9272 5.2688C11.8916 5.182 11.8419 5.10263 11.7803 5.0344L7.28025 0.2344C7.21628 0.168666 7.14188 0.115574 7.0605 0.0775999C7.038 0.0663999 7.014 0.0599999 6.99 0.0511999C6.92722 0.0285037 6.86191 0.0147843 6.79575 0.0104C6.78 0.00880001 6.76575 0 6.75 0H1.5C0.67275 0 0 0.7176 0 1.6V14.4C0 15.2824 0.67275 16 1.5 16H10.5C11.3273 16 12 15.2824 12 14.4V5.6C12 5.5832 11.9917 5.568 11.9902 5.5504C11.9861 5.47983 11.9733 5.41016 11.952 5.3432C11.945 5.3176 11.9367 5.2928 11.9272 5.2688ZM9.4395 4.8H7.5V2.7312L9.4395 4.8ZM1.5 14.4V1.6H6V5.6C6 5.81217 6.07902 6.01566 6.21967 6.16569C6.36032 6.31571 6.55109 6.4 6.75 6.4H10.5L10.5015 14.4H1.5Z" fill="white"/>
<path d="M3 8.2H9V9.8H3V8.2ZM3 11.4H9V13H3V11.4ZM3 5H4.5V6.6H3V5Z" fill="white"/>
</svg>
