<svg width="14" height="14" viewBox="0 0 14 14" fill="none" xmlns="http://www.w3.org/2000/svg">
<path d="M6.50512 0C5.15396 0 3.85815 0.536745 2.90273 1.49216C1.94732 2.44757 1.41058 3.74338 1.41058 5.09454V7.66219C1.41068 7.77509 1.38452 7.88646 1.33416 7.98751L0.0845423 10.486C0.0234998 10.6081 -0.00532389 10.7437 0.000808786 10.8801C0.00694146 11.0164 0.0478269 11.1489 0.119582 11.265C0.191337 11.3811 0.291579 11.4769 0.410787 11.5434C0.529995 11.6098 0.664212 11.6447 0.800689 11.6447H12.2095C12.346 11.6447 12.4802 11.6098 12.5994 11.5434C12.7187 11.4769 12.8189 11.3811 12.8907 11.265C12.9624 11.1489 13.0033 11.0164 13.0094 10.8801C13.0156 10.7437 12.9867 10.6081 12.9257 10.486L11.6768 7.98751C11.6262 7.88653 11.5998 7.77515 11.5997 7.66219V5.09454C11.5997 3.74338 11.0629 2.44757 10.1075 1.49216C9.15209 0.536745 7.85627 0 6.50512 0ZM6.50512 13.828C6.05341 13.8283 5.61275 13.6884 5.24387 13.4277C4.87498 13.167 4.59604 12.7983 4.44547 12.3725H8.56477C8.4142 12.7983 8.13525 13.167 7.76637 13.4277C7.39748 13.6884 6.95682 13.8283 6.50512 13.828Z" fill="white"/>
</svg>
