<svg width="20" height="20" viewBox="0 0 20 20" fill="none" xmlns="http://www.w3.org/2000/svg">
<rect width="20" height="20" rx="10" fill="#4E93E7"/>
<path fill-rule="evenodd" clip-rule="evenodd" d="M14.757 4.9444C14.9045 4.8823 15.066 4.86088 15.2247 4.88238C15.3833 4.90387 15.5332 4.96749 15.6589 5.06661C15.7846 5.16573 15.8815 5.29673 15.9394 5.44597C15.9973 5.59522 16.0141 5.75725 15.9881 5.9152L14.634 14.1288C14.5026 14.9211 13.6333 15.3755 12.9067 14.9808C12.2989 14.6506 11.3962 14.142 10.5842 13.6112C10.1782 13.3455 8.93455 12.4947 9.0874 11.8893C9.21875 11.3716 11.3084 9.42646 12.5025 8.26997C12.9712 7.81562 12.7575 7.55351 12.204 7.97145C10.8296 9.00912 8.62289 10.5871 7.8933 11.0313C7.24968 11.423 6.91414 11.4899 6.51292 11.423C5.78093 11.3012 5.10209 11.1125 4.54803 10.8827C3.79932 10.5722 3.83574 9.54288 4.54743 9.24316L14.757 4.9444Z" fill="white"/>
</svg>
