<svg width="30" height="33" viewBox="0 0 30 33" fill="none" xmlns="http://www.w3.org/2000/svg">
<path d="M10.8645 9.49179C10.9557 9.48984 10.9557 9.48984 11.0488 9.48785C11.5978 9.51198 12.0894 9.73874 12.5798 9.96703C12.7006 10.0223 12.8213 10.0776 12.9421 10.1329C12.9884 10.1542 12.9884 10.1542 13.0357 10.1759C13.3931 10.3403 13.7529 10.4993 14.1126 10.6586C14.3271 10.7536 14.5414 10.849 14.7558 10.9443C14.8467 10.9847 14.9377 11.0251 15.0287 11.0656C15.2225 11.1517 15.4164 11.2379 15.6103 11.3241C16.0766 11.5314 16.5429 11.7386 17.0094 11.9453C17.6751 12.2404 18.3407 12.5356 19.0035 12.8374C19.0738 12.8692 19.0738 12.8692 19.1456 12.9017C19.9557 13.2728 20.4808 13.654 20.832 14.4897C20.8813 14.6375 20.89 14.7372 20.8926 14.8914C20.8936 14.9433 20.8946 14.9953 20.8956 15.0489C20.8964 15.1061 20.8973 15.1633 20.8981 15.2222C20.8997 15.313 20.8997 15.313 20.9012 15.4057C20.904 15.5736 20.9065 15.7415 20.9088 15.9094C20.9103 16.0164 20.9119 16.1233 20.9135 16.2303C20.9391 17.9602 20.9405 19.6901 20.9392 21.4201C20.939 21.761 20.9392 22.102 20.9394 22.4429C20.9396 22.7785 20.9397 23.1141 20.9395 23.4498C20.9395 23.6473 20.9394 23.8448 20.9396 24.0423C20.9398 24.2257 20.9397 24.4092 20.9394 24.5927C20.9393 24.6904 20.9394 24.7882 20.9396 24.8859C20.9373 25.8522 20.8436 26.7039 20.2278 27.4818C20.1945 27.4818 20.1613 27.4818 20.127 27.4818C20.1104 27.5317 20.0938 27.5815 20.0767 27.6329C19.1209 28.3948 17.8678 28.8926 16.7825 29.4495C16.3763 29.6579 15.9716 29.869 15.568 30.0825C15.3163 30.2155 15.0637 30.3467 14.8112 30.478C14.4573 30.6622 14.1042 30.8478 13.7518 31.0347C13.6952 31.0647 13.6952 31.0647 13.6375 31.0953C13.4502 31.1946 13.263 31.2941 13.0759 31.3936C11.7127 32.118 11.7127 32.118 11.1132 32.165C11.0582 32.17 11.0582 32.17 11.0022 32.175C10.0076 32.2228 9.09905 31.6059 8.2672 31.1377C8.00738 30.9919 7.74446 30.8554 7.47718 30.7239C7.12476 30.5499 6.77578 30.3693 6.42681 30.1885C6.39519 30.1721 6.36357 30.1557 6.331 30.1389C5.81867 29.8735 5.30685 29.607 4.79552 29.3397C4.60594 29.2406 4.41617 29.1419 4.22625 29.0435C3.9364 28.8931 3.64705 28.7419 3.35818 28.5897C3.30882 28.5637 3.25946 28.5377 3.20861 28.5109C1.46765 27.5898 1.46765 27.5898 1.14247 26.7768C1.14247 26.7436 1.14247 26.7103 1.14247 26.6761C1.09262 26.6595 1.04277 26.6429 0.991403 26.6257C1.02464 26.6257 1.05787 26.6257 1.09212 26.6257C1.08161 26.5955 1.0711 26.5652 1.06027 26.534C0.956847 26.2172 0.914649 25.9305 0.906955 25.5983C0.905292 25.5452 0.903629 25.4921 0.901916 25.4373C0.878356 24.567 0.882381 23.6958 0.882267 22.8251C0.882231 22.6689 0.882122 22.5127 0.88199 22.3565C0.881527 21.8098 0.881318 21.2631 0.881358 20.7164C0.881389 20.2092 0.880854 19.7019 0.880062 19.1946C0.879402 18.7564 0.879133 18.3181 0.879165 17.8799C0.879178 17.6193 0.879038 17.3587 0.878502 17.0981C0.878012 16.8535 0.878012 16.609 0.878377 16.3645C0.878429 16.2753 0.878313 16.186 0.878007 16.0968C0.874773 15.0894 0.970983 14.3173 1.66807 13.5487C2.06791 13.1878 2.49989 12.9823 2.98994 12.7713C3.06964 12.7365 3.14932 12.7016 3.22897 12.6667C3.40005 12.5918 3.57123 12.5171 3.74247 12.4425C4.1614 12.2598 4.57879 12.0736 4.99632 11.8877C5.13934 11.824 5.28239 11.7605 5.42545 11.6969C6.34855 11.2867 7.27064 10.8742 8.19245 10.4612C8.19245 10.4279 8.19245 10.3947 8.19245 10.3604C8.24402 10.3549 8.29559 10.3493 8.34873 10.3435C8.54142 10.3107 8.68722 10.259 8.8644 10.1783C8.92301 10.1519 8.98163 10.1255 9.04202 10.0982C9.13248 10.0567 9.13248 10.0567 9.22476 10.0142C9.34488 9.95981 9.465 9.90538 9.58513 9.85097C9.66906 9.81283 9.66906 9.81283 9.75469 9.77391C9.80416 9.75144 9.85362 9.72896 9.90458 9.70581C9.94158 9.68891 9.97858 9.67202 10.0167 9.65461C10.304 9.52668 10.5511 9.49574 10.8645 9.49179ZM9.92701 11.5743C9.88237 11.5943 9.83773 11.6142 9.79174 11.6348C9.64668 11.6996 9.50182 11.7649 9.35695 11.8302C9.25496 11.8759 9.15295 11.9216 9.05093 11.9672C8.84494 12.0594 8.63903 12.1517 8.43317 12.2441C8.06623 12.4089 7.69881 12.5725 7.33125 12.7358C7.22284 12.784 7.11445 12.8322 7.00606 12.8804C6.33372 13.1792 5.66002 13.475 4.98608 13.7702C4.44266 14.0083 3.90009 14.2482 3.35818 14.4897C3.51789 14.6193 3.68206 14.7053 3.86804 14.7924C3.89857 14.8068 3.92909 14.8211 3.96053 14.8359C4.06177 14.8834 4.16318 14.9305 4.26461 14.9775C4.33667 15.0112 4.40874 15.0448 4.48081 15.0785C5.04584 15.3414 5.615 15.5946 6.18519 15.8461C6.7487 16.0949 7.30832 16.3507 7.86513 16.6141C7.90034 16.6308 7.93555 16.6475 7.97183 16.6646C8.11128 16.7306 8.25071 16.7967 8.39011 16.8628C8.72143 17.0198 9.05334 17.1756 9.38573 17.3303C9.47307 17.371 9.56033 17.4119 9.64759 17.4527C10.4455 17.8597 10.4455 17.8597 11.3023 17.8228C11.6751 17.6861 12.0319 17.5098 12.391 17.3412C12.4791 17.3001 12.5673 17.259 12.6555 17.218C12.8317 17.136 13.0078 17.0538 13.1839 16.9714C13.3977 16.8713 13.6118 16.7717 13.8259 16.6724C14.0557 16.5658 14.2854 16.4592 14.515 16.3525C15.3453 15.9669 16.1769 15.5844 17.0087 15.202C17.0913 15.164 17.1739 15.126 17.2565 15.088C18.0608 14.718 18.0608 14.718 18.4653 14.5401C18.329 14.4315 18.1996 14.3535 18.0396 14.2849C17.9938 14.2651 17.9481 14.2453 17.901 14.2249C17.8504 14.2032 17.7998 14.1816 17.7477 14.1592C17.6338 14.1098 17.52 14.0603 17.4062 14.0107C17.3752 13.9972 17.3441 13.9837 17.3122 13.9698C16.8766 13.7797 16.4436 13.5836 16.0104 13.3882C15.8352 13.3092 15.6601 13.2303 15.485 13.1513C15.4423 13.1321 15.3997 13.1129 15.3558 13.0931C15.1036 12.9794 14.8512 12.8661 14.5986 12.7532C14.5096 12.7134 14.5096 12.7134 14.4187 12.6728C14.3326 12.6343 14.3326 12.6343 14.2447 12.595C13.8511 12.4191 13.4583 12.2415 13.0664 12.0618C13.0069 12.0345 13.0069 12.0345 12.9462 12.0067C12.7522 11.9177 12.5582 11.8285 12.3643 11.7391C11.4113 11.3007 10.9092 11.1288 9.92701 11.5743ZM2.50211 15.9501C2.4974 17.2291 2.49385 18.5082 2.49168 19.7872C2.49064 20.3811 2.48922 20.975 2.48692 21.5689C2.48491 22.0866 2.48361 22.6043 2.48316 23.122C2.4829 23.3961 2.48228 23.6702 2.48081 23.9442C2.47944 24.2024 2.47903 24.4605 2.47933 24.7186C2.47927 24.8132 2.47887 24.9077 2.4781 25.0023C2.4552 25.7327 2.4552 25.7327 2.78285 26.3609C3.00927 26.5791 3.29372 26.7128 3.5722 26.8523C3.67632 26.9056 3.78045 26.9588 3.88457 27.0121C3.93874 27.0396 3.99291 27.0671 4.04872 27.0954C4.26714 27.2066 4.48458 27.3197 4.70203 27.4328C5.12542 27.653 5.54939 27.8721 5.97359 28.0908C6.0071 28.1081 6.04061 28.1254 6.07514 28.1432C6.10866 28.1604 6.14218 28.1777 6.17672 28.1955C6.24435 28.2304 6.31197 28.2652 6.3796 28.3001C6.41305 28.3174 6.44651 28.3346 6.48098 28.3524C6.89762 28.5672 7.31352 28.7833 7.72787 29.0026C8.12743 29.2136 8.52915 29.4205 8.93078 29.6276C9.34437 29.8408 9.75637 30.0564 10.164 30.2808C10.4993 30.4477 10.7932 30.5017 11.1635 30.4529C11.3161 30.3969 11.3161 30.3969 11.4691 30.3202C11.5264 30.2927 11.5838 30.2653 11.6428 30.2369C11.7007 30.2085 11.7585 30.18 11.8181 30.1507C11.871 30.1249 11.9239 30.0991 11.9784 30.0725C12.1411 29.9926 12.3032 29.9117 12.4653 29.8305C12.5247 29.8008 12.5841 29.7711 12.6453 29.7406C12.7702 29.6782 12.895 29.6157 13.0198 29.5532C13.1766 29.4746 13.3336 29.3962 13.4905 29.3179C14.0818 29.0227 14.6721 28.7261 15.256 28.4163C15.663 28.2005 16.0732 27.9911 16.4835 27.7816C16.7083 27.6669 16.9329 27.5518 17.1576 27.4368C17.2012 27.4144 17.2449 27.392 17.2899 27.369C17.3742 27.3258 17.4584 27.2827 17.5427 27.2395C17.6494 27.1849 17.7561 27.1303 17.8628 27.0757C18.026 26.9921 18.189 26.9082 18.352 26.824C18.3971 26.801 18.4422 26.7779 18.4887 26.7542C18.8369 26.5736 19.1156 26.3987 19.271 26.0215C19.3506 25.7445 19.3861 25.4938 19.3838 25.205C19.3839 25.1654 19.384 25.1258 19.3841 25.085C19.3842 24.9533 19.3837 24.8216 19.3831 24.6899C19.3831 24.5951 19.3831 24.5003 19.3832 24.4055C19.3832 24.1488 19.3826 23.8922 19.3819 23.6356C19.3813 23.3671 19.3812 23.0986 19.3811 22.8301C19.3808 22.322 19.38 21.8139 19.3789 21.3058C19.3778 20.7272 19.3773 20.1486 19.3768 19.5701C19.3757 18.3802 19.3739 17.1903 19.3717 16.0004C19.1523 15.9273 19.0125 16.0314 18.8144 16.1261C18.7735 16.1452 18.7325 16.1643 18.6903 16.184C18.5553 16.2472 18.4206 16.3111 18.2859 16.375C18.1919 16.4191 18.0978 16.4632 18.0038 16.5072C17.7656 16.6189 17.5277 16.7311 17.2899 16.8435C17.0922 16.937 16.8945 17.0302 16.6967 17.1234C16.6255 17.157 16.5543 17.1905 16.4832 17.224C16.4487 17.2403 16.4143 17.2565 16.3788 17.2733C16.3091 17.3061 16.2394 17.339 16.1697 17.3719C15.6213 17.6309 15.0703 17.8837 14.5174 18.133C14.1083 18.3175 13.701 18.5053 13.296 18.6985C13.2553 18.7178 13.2146 18.7372 13.1727 18.7572C12.9757 18.8511 12.7789 18.9454 12.5824 19.0403C11.4926 19.5637 11.4926 19.5637 10.94 19.5506C10.8736 19.5511 10.8072 19.5516 10.7388 19.5522C10.2078 19.5129 9.71034 19.2711 9.23735 19.0439C9.14632 19.0009 9.05529 18.9579 8.96423 18.915C8.89843 18.8839 8.83267 18.8528 8.76693 18.8217C8.36119 18.6295 7.95356 18.4414 7.54607 18.253C7.32328 18.15 7.10057 18.0467 6.87786 17.9435C6.83482 17.9236 6.79179 17.9036 6.74745 17.8831C6.26513 17.6595 5.78296 17.4357 5.30086 17.2117C5.09948 17.1182 4.89806 17.0247 4.69658 16.9314C4.54314 16.8603 4.38971 16.7891 4.23628 16.718C4.14863 16.6774 4.14863 16.6774 4.05921 16.636C3.79286 16.5124 3.52689 16.3881 3.26199 16.2615C3.19481 16.2293 3.19481 16.2293 3.12628 16.1966C3.04412 16.1572 2.96205 16.1176 2.88007 16.0779C2.6993 15.9834 2.6993 15.9834 2.50211 15.9501Z" fill="#18DCCB"/>
<path d="M21.8714 1.93885C23.5822 2.80361 25.2092 4.04888 26.3586 5.59403C26.4202 5.6756 26.4835 5.75535 26.5477 5.83483C26.8766 6.24677 27.1507 6.68305 27.4184 7.13683C27.4685 7.22081 27.5204 7.30369 27.5727 7.38625C28.5908 9.01913 29.2352 11.1615 29.2571 13.086C29.2586 13.1291 29.2601 13.1721 29.2616 13.2164C29.2646 13.5178 29.2139 13.6885 29.04 13.9358C28.8453 14.1253 28.6551 14.2295 28.3802 14.2433C28.0691 14.2288 27.8419 14.1142 27.63 13.8854C27.506 13.6695 27.4551 13.4925 27.4307 13.2456C27.4237 13.1803 27.4166 13.115 27.4094 13.0477C27.4059 13.0134 27.4024 12.9791 27.3987 12.9438C27.1469 10.5337 26.2051 7.95361 24.415 6.24319C24.3568 6.18083 24.3568 6.18083 24.3568 6.08012C24.3235 6.08012 24.2903 6.08012 24.2561 6.08012C24.2561 6.04688 24.2561 6.01365 24.2561 5.9794C24.2228 5.9794 24.1896 5.9794 24.1553 5.9794C24.1553 5.94617 24.1553 5.91293 24.1553 5.87869C24.1268 5.86681 24.0983 5.85493 24.069 5.84269C23.9276 5.76316 23.8359 5.66584 23.7242 5.54822C22.7185 4.52648 21.4329 3.78026 20.1268 3.20977C20.0679 3.18361 20.009 3.15745 19.9484 3.1305C18.696 2.60093 17.3397 2.33637 15.9906 2.21085C15.618 2.17172 15.3151 2.0957 15.0659 1.80293C14.9366 1.53617 14.9537 1.23119 14.9904 0.94371C15.1136 0.683499 15.2964 0.511649 15.5557 0.385653C17.3493 -0.207996 20.3021 1.16316 21.8714 1.93885Z" fill="#19F2D0"/>
<path d="M20.1333 4.90622C21.3451 5.52167 22.5395 6.37688 23.4002 7.4398C23.4443 7.49156 23.4883 7.54329 23.5324 7.59501C24.7261 9.01657 25.52 10.785 25.767 12.6266C25.772 12.6632 25.7769 12.6998 25.782 12.7375C25.8297 13.122 25.8621 13.4875 25.6663 13.8351C25.4591 14.0928 25.2467 14.2228 24.9173 14.26C24.6217 14.2476 24.391 14.1231 24.1871 13.9138C24.0161 13.6442 23.9803 13.3903 23.9416 13.0798C23.7417 11.6453 23.187 10.2443 22.2924 9.10158C22.2602 9.05913 22.228 9.01668 22.1948 8.97294C20.8355 7.23773 18.7947 6.03259 16.5962 5.75845C16.2595 5.72055 16.2595 5.72055 15.9223 5.68808C15.6216 5.65804 15.4228 5.62597 15.1921 5.42553C14.971 5.13871 14.9102 4.93024 14.9403 4.56946C15.0389 4.2729 15.1904 4.09274 15.4439 3.91482C16.8216 3.45558 18.9175 4.30842 20.1333 4.90622Z" fill="#19F3CF"/>
<path d="M16.3221 7.37366C16.3621 7.37839 16.4021 7.38312 16.4433 7.38799C17.3965 7.51022 18.3694 7.86321 19.1704 8.39654C19.198 8.41482 19.2256 8.43311 19.2541 8.45196C20.7555 9.45649 21.8526 10.9819 22.2194 12.7652C22.2956 13.1671 22.3596 13.5231 22.1588 13.8923C22.0136 14.0937 21.8201 14.2108 21.5876 14.2883C21.2742 14.3149 21.0398 14.276 20.7819 14.0869C20.5439 13.8595 20.4945 13.5732 20.4136 13.2654C20.0243 11.8646 19.3128 10.6427 18.0122 9.90724C17.4351 9.58871 16.8447 9.3221 16.1923 9.20323C16.1476 9.19507 16.1029 9.1869 16.0568 9.17849C15.9696 9.16328 15.8823 9.14921 15.7947 9.1365C15.4921 9.08559 15.2947 8.9824 15.0915 8.74903C14.9556 8.52574 14.9256 8.34716 14.9656 8.0881C15.0422 7.78404 15.1702 7.61618 15.4409 7.4492C15.7434 7.33191 16.0064 7.33631 16.3221 7.37366Z" fill="#19F3CF"/>
<path d="M4.90913 19.0683C4.94048 19.0832 4.97182 19.0981 5.00411 19.1135C5.10621 19.1622 5.20791 19.2116 5.30963 19.2611C5.38173 19.2956 5.45385 19.3301 5.52601 19.3644C5.67308 19.4346 5.82004 19.505 5.96693 19.5755C6.27102 19.7212 6.57716 19.8625 6.88328 20.0038C6.99718 20.0568 7.11108 20.1098 7.22496 20.1628C7.45404 20.2692 7.68349 20.3748 7.91328 20.4797C8.06165 20.5475 8.20981 20.6158 8.35793 20.6842C8.42946 20.717 8.50108 20.7497 8.57279 20.7822C8.67283 20.8275 8.77253 20.8735 8.87219 20.9197C8.9294 20.9459 8.98662 20.972 9.04557 20.999C9.24996 21.1151 9.39735 21.2536 9.52388 21.4516C9.56753 21.665 9.53354 21.8425 9.45149 22.0433C9.35892 22.1743 9.29564 22.2111 9.14935 22.2951C8.75487 22.3485 8.46914 22.1889 8.12018 22.0181C8.05844 21.9886 7.99668 21.9592 7.93488 21.9298C7.76921 21.8508 7.60404 21.7707 7.43902 21.6904C7.33644 21.6404 7.23379 21.5906 7.13111 21.5409C6.85261 21.406 6.57413 21.2711 6.29604 21.1353C5.9555 20.9693 5.61422 20.8054 5.27009 20.6469C5.23781 20.632 5.20554 20.6171 5.17228 20.6018C5.02071 20.5321 4.86896 20.4628 4.71695 20.394C3.96889 20.0521 3.96889 20.0521 3.76115 19.8119C3.67274 19.5742 3.67326 19.3675 3.76745 19.132C4.09623 18.7485 4.50817 18.8749 4.90913 19.0683Z" fill="#1BDDCC"/>
<path d="M4.7871 22.18C4.8638 22.2166 4.94016 22.2539 5.0162 22.2919C5.05788 22.312 5.09956 22.3321 5.1425 22.3528C5.27507 22.4168 5.40717 22.4818 5.53925 22.5468C5.71204 22.631 5.885 22.7148 6.05796 22.7986C6.10079 22.8195 6.14361 22.8403 6.18774 22.8618C6.53773 23.0314 6.89116 23.1926 7.2468 23.3501C7.5677 23.4925 7.88112 23.6472 8.19381 23.8067C8.33684 23.879 8.4812 23.9474 8.62695 24.0141C8.66579 24.0319 8.70463 24.0497 8.74465 24.068C8.81921 24.102 8.89395 24.1357 8.96887 24.1689C9.21024 24.2792 9.38674 24.388 9.5143 24.6303C9.58073 24.8628 9.58099 25.0057 9.47338 25.2252C9.3212 25.4008 9.22437 25.4623 8.99814 25.5179C8.62009 25.4453 8.25796 25.2422 7.91232 25.0804C7.85388 25.0532 7.79545 25.0261 7.73525 24.9981C7.40509 24.8439 7.07694 24.6866 6.75207 24.5216C6.44054 24.3637 6.1262 24.2116 5.81163 24.0599C5.71601 24.0137 5.62047 23.9674 5.52494 23.921C5.23405 23.7802 4.94258 23.6414 4.64738 23.5097C4.57456 23.4767 4.57456 23.4767 4.50028 23.4431C4.41112 23.4029 4.32158 23.3636 4.2316 23.3253C3.9494 23.1972 3.83358 23.0855 3.71066 22.7986C3.67967 22.5778 3.69434 22.477 3.79878 22.2793C4.07558 21.9487 4.42197 22.0216 4.7871 22.18Z" fill="#1ACFCB"/>
<path d="M11.4057 27.0601C11.6575 27.2477 11.7392 27.4239 11.818 27.7241C11.8385 27.9876 11.75 28.2146 11.6165 28.4386C11.4536 28.623 11.2785 28.7006 11.0374 28.7376C10.764 28.7534 10.5501 28.7005 10.3198 28.5487C10.0883 28.3236 10.0246 28.126 10.002 27.8089C10.0084 27.553 10.1112 27.3857 10.2695 27.1923C10.6288 26.8983 10.9922 26.8556 11.4057 27.0601Z" fill="#18BFC9"/>
<path d="M20.832 14.7415C20.8486 14.7415 20.8652 14.7415 20.8823 14.7415C20.9275 16.9654 20.9408 19.1885 20.9392 21.4129C20.939 21.7544 20.9391 22.096 20.9394 22.4376C20.9396 22.7736 20.9396 23.1096 20.9395 23.4457C20.9394 23.6435 20.9394 23.8414 20.9396 24.0392C20.9397 24.2231 20.9396 24.407 20.9393 24.5909C20.9392 24.6888 20.9394 24.7868 20.9395 24.8848C20.9377 25.6492 20.9085 26.347 20.5298 27.0286C20.5132 27.0286 20.4966 27.0286 20.4795 27.0286C20.5137 26.7204 20.5753 26.4144 20.6809 26.1222C20.7142 26.1056 20.7474 26.089 20.7816 26.0718C20.7983 22.3328 20.8149 18.5938 20.832 14.7415Z" fill="#1AC3B8"/>
<path d="M6.37988 30.1003C6.66727 30.1238 6.84112 30.1979 7.08488 30.3521C7.08488 30.3854 7.08488 30.4186 7.08488 30.4528C7.15742 30.4574 7.15742 30.4574 7.23143 30.4621C7.48811 30.4988 7.69187 30.6288 7.91262 30.7581C7.95426 30.7819 7.99591 30.8057 8.03881 30.8302C8.14078 30.8886 8.24241 30.9474 8.3438 31.0068C8.3438 31.04 8.3438 31.0732 8.3438 31.1075C8.40797 31.1271 8.40797 31.1271 8.47343 31.147C8.65515 31.2115 8.81814 31.2921 8.989 31.3813C9.25559 31.5181 9.51665 31.6269 9.80416 31.7118C9.87894 31.7367 9.87894 31.7367 9.95523 31.7621C9.95523 31.7954 9.95523 31.8286 9.95523 31.8628C10.2908 31.944 10.6152 31.9733 10.9592 31.973C11.0146 31.973 11.0146 31.973 11.0711 31.9731C11.2452 31.9713 11.3991 31.9575 11.5666 31.9132C11.5998 31.9073 11.6329 31.9015 11.667 31.8954C11.9912 31.8361 12.2564 31.7058 12.5455 31.5513C12.6344 31.504 12.7235 31.4571 12.8128 31.4106C12.8516 31.3899 12.8903 31.3692 12.9303 31.3478C12.9622 31.335 12.9941 31.3221 13.027 31.3089C13.0602 31.3255 13.0935 31.3421 13.1277 31.3593C11.2623 32.3647 11.2623 32.3647 10.168 32.07C9.49589 31.867 8.87736 31.4814 8.26903 31.1385C7.99355 30.9836 7.71396 30.8399 7.43044 30.7004C7.07577 30.5255 6.72776 30.3386 6.37988 30.1507C6.37988 30.1341 6.37988 30.1175 6.37988 30.1003Z" fill="#1AB0BC"/>
<path d="M14.0342 28.9925C14.084 29.0174 14.084 29.0174 14.1349 29.0428C13.9817 29.1237 13.8286 29.2044 13.6754 29.2852C13.6323 29.3079 13.5892 29.3307 13.5448 29.3541C12.8931 29.6975 12.8931 29.6975 12.7752 29.6975C12.7752 29.7307 12.7752 29.764 12.7752 29.7982C12.654 29.9123 12.5548 29.9897 12.3952 30.0402C12.2473 30.0914 12.1202 30.1489 11.9817 30.2203C11.0547 30.6962 11.0547 30.6962 10.5595 30.6039C10.5429 30.5541 10.5263 30.5042 10.5092 30.4528C10.3577 30.3911 10.3577 30.3911 10.207 30.3521C10.2403 30.3355 10.2735 30.3189 10.3077 30.3018C10.3483 30.3174 10.3888 30.3329 10.4305 30.349C10.7898 30.4561 11.0979 30.4493 11.4384 30.2858C11.5241 30.2448 11.5241 30.2448 11.6115 30.2029C12.1151 29.9546 12.6157 29.7003 13.1159 29.4454C13.2646 29.3697 13.4136 29.2945 13.5627 29.2193C13.6085 29.1958 13.6544 29.1722 13.7017 29.1479C13.744 29.1267 13.7862 29.1055 13.8297 29.0837C13.8669 29.0648 13.904 29.0459 13.9423 29.0265C13.9726 29.0153 14.0029 29.004 14.0342 28.9925Z" fill="#19B6C1"/>
<path d="M14.437 10.8137C15.1615 11.1267 15.8836 11.4445 16.6024 11.7704C16.6024 11.8037 16.6024 11.8369 16.6024 11.8712C16.7021 11.9044 16.8018 11.9376 16.9045 11.9719C16.7252 12.0317 16.6994 12.0121 16.5343 11.9351C16.4914 11.9154 16.4485 11.8957 16.4043 11.8754C16.3596 11.8543 16.3148 11.8331 16.2687 11.8114C16.181 11.7708 16.0933 11.7302 16.0056 11.6896C15.9624 11.6694 15.9193 11.6493 15.8749 11.6285C15.7153 11.5547 15.5546 11.4835 15.3935 11.413C15.2915 11.3669 15.1915 11.3176 15.0917 11.2669C15.0917 11.2336 15.0917 11.2004 15.0917 11.1662C15.0613 11.1564 15.0309 11.1467 14.9996 11.1367C14.9593 11.1235 14.9191 11.1104 14.8776 11.0969C14.8379 11.0841 14.7982 11.0712 14.7573 11.058C14.6452 11.0175 14.5423 10.9699 14.437 10.9144C14.437 10.8811 14.437 10.8479 14.437 10.8137Z" fill="#1DE7C7"/>
<path d="M18.2642 12.6265C18.5112 12.6104 18.6688 12.6569 18.8915 12.7626C18.9359 12.7837 18.9359 12.7837 18.9813 12.8052C19.0434 12.8349 19.1054 12.8649 19.1672 12.8951C19.262 12.9413 19.3574 12.9861 19.453 13.0308C19.5128 13.0596 19.5726 13.0885 19.6342 13.1183C19.689 13.1447 19.7438 13.171 19.8002 13.1982C19.9259 13.2812 19.9259 13.2812 19.9635 13.3888C19.9698 13.4352 19.9698 13.4352 19.9763 13.4826C20.071 13.5363 20.071 13.5363 20.1777 13.5833C20.2635 13.6702 20.2635 13.6702 20.3414 13.7658C20.3807 13.8136 20.3807 13.8136 20.4209 13.8622C20.4501 13.8986 20.4501 13.8986 20.4799 13.9358C20.43 13.9607 20.43 13.9607 20.3792 13.9862C20.3555 13.9588 20.3318 13.9315 20.3074 13.9033C20.276 13.8673 20.2446 13.8313 20.2123 13.7942C20.1659 13.7407 20.1659 13.7407 20.1185 13.6862C20.0882 13.6522 20.0579 13.6183 20.0267 13.5833C20.0037 13.5568 19.9807 13.5303 19.957 13.503C19.8465 13.407 19.7291 13.3561 19.5955 13.2969C19.5466 13.2749 19.4977 13.2529 19.4474 13.2302C19.3286 13.1743 19.3286 13.1743 19.2209 13.1804C19.2209 13.1472 19.2209 13.114 19.2209 13.0797C19.1782 13.0664 19.1355 13.053 19.0915 13.0392C18.9124 12.9768 18.7443 12.9022 18.5726 12.8217C18.5146 12.7945 18.4565 12.7674 18.3967 12.7394C18.353 12.7188 18.3092 12.6981 18.2642 12.6769C18.2642 12.6603 18.2642 12.6436 18.2642 12.6265Z" fill="#1DF1D1"/>
<path d="M19.1705 28.0861C19.2038 28.1027 19.237 28.1194 19.2712 28.1365C18.7339 28.4336 18.196 28.7294 17.6472 29.0051C17.6092 29.0244 17.5712 29.0436 17.532 29.0634C17.2695 29.194 17.2695 29.194 17.1562 29.194C17.2143 29.0199 17.2342 29.0128 17.389 28.9322C17.4274 28.912 17.4658 28.8918 17.5053 28.871C17.5678 28.8392 17.5678 28.8392 17.6315 28.8069C17.6739 28.7849 17.7164 28.7629 17.7601 28.7403C18.1889 28.5211 18.6279 28.3273 19.0698 28.1365C19.103 28.1199 19.1363 28.1032 19.1705 28.0861Z" fill="#19B7C2"/>
<path d="M7.18555 28.7408C7.36773 28.7699 7.50503 28.8181 7.66531 28.9088C7.73063 28.9452 7.73063 28.9452 7.79727 28.9824C7.84363 29.0086 7.88999 29.0348 7.93775 29.0618C8.38901 29.3133 8.84558 29.5496 9.31085 29.7742C9.35503 29.7958 9.39921 29.8173 9.44472 29.8396C9.48382 29.8584 9.52292 29.8773 9.5632 29.8967C9.65304 29.9494 9.65304 29.9494 9.70339 30.0501C9.50991 29.9941 9.33708 29.9189 9.15891 29.8266C8.76959 29.6235 8.76959 29.6235 8.34376 29.5465C8.34376 29.4966 8.34376 29.4468 8.34376 29.3954C8.23058 29.3375 8.11726 29.2798 8.00385 29.2223C7.97191 29.2059 7.93997 29.1895 7.90707 29.1727C7.72125 29.0787 7.72125 29.0787 7.52388 29.0146C7.37244 28.9761 7.28845 28.8523 7.18555 28.7408Z" fill="#18AFB6"/>
<path d="M12.322 9.85685C12.322 9.89009 12.322 9.92332 12.322 9.95757C12.3698 9.97211 12.4176 9.98665 12.4668 10.0016C12.6242 10.0583 12.6242 10.0583 12.7249 10.159C12.5195 10.1282 12.3643 10.0588 12.1804 9.96386C11.5302 9.66 10.9102 9.62817 10.207 9.70578C10.7699 9.33055 11.7664 9.56109 12.322 9.85685Z" fill="#1DF9D9"/>
<path d="M15.9982 27.9854C16.0314 28.002 16.0647 28.0186 16.0989 28.0358C15.9727 28.1923 15.919 28.2342 15.7149 28.2624C15.6589 28.2707 15.6028 28.279 15.545 28.2876C15.5219 28.3345 15.5219 28.3345 15.4984 28.3824C15.4269 28.5231 15.3576 28.5461 15.2141 28.6078C15.169 28.6276 15.1239 28.6474 15.0774 28.6678C15.0302 28.6877 14.983 28.7076 14.9344 28.7282C14.8868 28.7489 14.8393 28.7696 14.7902 28.7909C14.6728 28.8419 14.5551 28.8923 14.4371 28.9422C14.4039 28.909 14.3707 28.8757 14.3364 28.8415C14.5407 28.7357 14.745 28.63 14.9493 28.5243C15.0187 28.4883 15.0882 28.4524 15.1577 28.4164C15.2576 28.3647 15.3576 28.3129 15.4577 28.2612C15.4886 28.2452 15.5195 28.2292 15.5513 28.2127C15.6331 28.1704 15.7149 28.1283 15.7968 28.0861C15.8349 28.0649 15.8731 28.0436 15.9124 28.0217C15.9407 28.0097 15.969 27.9977 15.9982 27.9854Z" fill="#19BCC6"/>
<path d="M10.8869 9.49807C10.9518 9.49794 11.0167 9.49781 11.0836 9.49768C11.2355 9.50329 11.3692 9.51907 11.5164 9.55473C11.5164 9.57134 11.5164 9.58796 11.5164 9.60508C11.4556 9.6045 11.3948 9.60391 11.3322 9.60331C11.2509 9.60284 11.1696 9.60238 11.0883 9.60194C11.0485 9.60151 11.0086 9.60109 10.9675 9.60066C10.7093 9.5996 10.4627 9.61821 10.2071 9.65544C10.2071 9.68868 10.2071 9.72191 10.2071 9.75615C10.0919 9.80804 9.97647 9.85936 9.86087 9.91037C9.82809 9.9252 9.79531 9.94004 9.76154 9.95532C9.67631 9.99266 9.58926 10.0258 9.50208 10.0583C9.46885 10.0417 9.43561 10.0251 9.40137 10.0079C9.53519 9.84481 9.70862 9.77812 9.89864 9.6995C9.92948 9.68619 9.96031 9.67289 9.99208 9.65918C10.3007 9.52897 10.5528 9.49741 10.8869 9.49807Z" fill="#1FE7C7"/>
<path d="M17.9618 14.1876C18.1114 14.2374 18.2609 14.2873 18.415 14.3386C18.415 14.3719 18.415 14.4051 18.415 14.4393C18.4649 14.456 18.5147 14.4726 18.5661 14.4897C18.5157 14.6408 18.5157 14.6408 18.4223 14.6943C18.3835 14.7099 18.3448 14.7254 18.3049 14.7415C18.1613 14.8007 18.0272 14.8608 17.8894 14.9335C17.8468 14.9532 17.8043 14.9729 17.7604 14.9933C17.7271 14.9767 17.6939 14.96 17.6597 14.9429C17.7856 14.7964 17.9214 14.733 18.0971 14.6565C18.1722 14.6235 18.1722 14.6235 18.2488 14.5898C18.287 14.5734 18.3253 14.557 18.3647 14.5401C18.2701 14.4313 18.2701 14.4313 18.1349 14.3921C18.0944 14.3745 18.0539 14.3568 18.0122 14.3386C17.9955 14.2888 17.9789 14.2389 17.9618 14.1876Z" fill="#1BEDCC"/>
<path d="M17.0553 29.194C17.0885 29.2106 17.1217 29.2272 17.156 29.2443C16.2887 29.7331 16.2887 29.7331 15.8467 29.9588C15.7906 29.9875 15.7345 30.0163 15.6767 30.0459C15.6113 30.0729 15.6113 30.0729 15.5446 30.1004C15.5113 30.0838 15.4781 30.0672 15.4438 30.05C15.7838 29.8486 15.7838 29.8486 15.8971 29.8486C15.9137 29.7988 15.9303 29.7489 15.9474 29.6975C16.0448 29.6348 16.0448 29.6348 16.1709 29.5748C16.216 29.5533 16.2611 29.5318 16.3076 29.5097C16.4873 29.4296 16.6687 29.3553 16.8523 29.2845C16.9556 29.2457 16.9556 29.2457 17.0553 29.194Z" fill="#19ACB8"/>
<path d="M27.2778 6.98657C27.4345 7.12224 27.5272 7.29285 27.6272 7.47126C27.6449 7.50259 27.6626 7.53393 27.6808 7.56622C27.9711 8.08678 27.9711 8.08678 28.0332 8.29585C28.0166 8.32909 28 8.36232 27.9828 8.39657C27.8343 8.26762 27.7587 8.12128 27.6712 7.9465C27.6446 7.89412 27.6179 7.84173 27.5904 7.78776C27.5296 7.64121 27.5296 7.64121 27.5296 7.43978C27.4798 7.42317 27.4299 7.40655 27.3785 7.38943C27.3418 7.29639 27.3418 7.29639 27.3187 7.18485C27.3108 7.14792 27.3028 7.11098 27.2946 7.07293C27.289 7.04443 27.2835 7.01593 27.2778 6.98657Z" fill="#20ECCD"/>
<path d="M27.6304 13.7847C27.6574 13.8076 27.6844 13.8304 27.7122 13.854C27.987 14.042 28.264 14.0648 28.5872 14.0365C28.7249 14.01 28.8551 13.975 28.99 13.9358C28.8368 14.1125 28.7163 14.1902 28.4864 14.2379C28.159 14.2543 27.9565 14.1611 27.7026 13.9596C27.6304 13.8854 27.6304 13.8854 27.6304 13.7847Z" fill="#26DAC3"/>
<path d="M12.9761 10.2598C13.4186 10.3507 13.8444 10.4805 14.235 10.713C14.2516 10.7628 14.2682 10.8127 14.2854 10.864C13.983 10.7723 13.694 10.6585 13.4041 10.5336C13.3679 10.5182 13.3317 10.5029 13.2944 10.487C13.0324 10.3725 13.0324 10.3725 12.9761 10.2598Z" fill="#1EF0CF"/>
<path d="M6.83308 12.9287C6.76661 12.9453 6.70014 12.9619 6.63165 12.979C6.63165 13.0123 6.63165 13.0455 6.63165 13.0798C6.51127 13.1391 6.39062 13.1977 6.26971 13.256C6.23579 13.2728 6.20188 13.2896 6.16693 13.307C5.97887 13.3969 5.83813 13.4555 5.62451 13.4323C5.73436 13.3103 5.83232 13.2467 5.9833 13.1836C6.10798 13.1311 6.23166 13.0784 6.3539 13.0203C6.39363 13.0015 6.43335 12.9827 6.47429 12.9633C6.51051 12.9458 6.54673 12.9284 6.58405 12.9104C6.68201 12.8783 6.68201 12.8783 6.83308 12.9287Z" fill="#1CEBCC"/>
<path d="M9.25013 10.0583C9.28337 10.075 9.31661 10.0916 9.35085 10.1087C9.301 10.1419 9.25114 10.1752 9.19978 10.2094C9.14992 10.1928 9.10007 10.1762 9.04871 10.1591C9.14313 10.1056 9.14313 10.1056 9.25013 10.0583ZM9.04871 10.2094C8.89194 10.338 8.73547 10.4157 8.54828 10.4927C8.47127 10.5248 8.47127 10.5248 8.39269 10.5576C8.25821 10.6067 8.13214 10.6393 7.99121 10.6626C8.02445 10.646 8.05768 10.6294 8.09192 10.6123C8.09192 10.579 8.09192 10.5458 8.09192 10.5116C8.20611 10.3974 8.24211 10.3975 8.39407 10.3605C8.45015 10.3345 8.50624 10.3086 8.56402 10.2818C8.74349 10.2106 8.85848 10.1955 9.04871 10.2094Z" fill="#1EEFCE"/>
<path d="M9.65277 11.569C9.68601 11.5856 9.71925 11.6023 9.75349 11.6194C9.51426 11.8998 9.06522 12.0728 8.70543 12.1167C8.65247 12.1187 8.5995 12.1208 8.54492 12.123C8.6715 11.9738 8.80532 11.9174 8.98555 11.846C9.16149 11.7757 9.33587 11.7048 9.508 11.6257C9.55577 11.607 9.60355 11.5883 9.65277 11.569Z" fill="#1DEECE"/>
<path d="M1.84766 27.6329C1.87654 27.6477 1.90543 27.6624 1.93519 27.6776C2.04227 27.7303 2.15026 27.778 2.25995 27.8249C2.5005 27.9308 2.728 28.0556 2.95551 28.1869C2.95551 28.2201 2.95551 28.2533 2.95551 28.2876C3.00536 28.3042 3.05522 28.3208 3.10658 28.3379C3.05673 28.3629 3.05673 28.3629 3.00587 28.3883C2.83183 28.3164 2.66979 28.2187 2.50544 28.1271C2.45913 28.1021 2.41281 28.0771 2.36509 28.0514C2.3206 28.0269 2.2761 28.0023 2.23025 27.977C2.18949 27.9545 2.14873 27.932 2.10673 27.9089C1.99139 27.8293 1.92484 27.749 1.84766 27.6329Z" fill="#1BB4BB"/>
<path d="M5.12061 17.058C5.29789 17.0877 5.44458 17.1343 5.60627 17.2124C5.64863 17.2327 5.69099 17.253 5.73463 17.2739C5.79991 17.3057 5.79991 17.3057 5.86652 17.3381C5.91102 17.3595 5.95551 17.3809 6.00136 17.4029C6.11076 17.4555 6.22002 17.5084 6.32917 17.5616C6.32917 17.5782 6.32917 17.5948 6.32917 17.6119C6.04435 17.6404 5.86456 17.5471 5.62417 17.4105C5.62417 17.3772 5.62417 17.344 5.62417 17.3098C5.55563 17.2895 5.55563 17.2895 5.48569 17.2689C5.3364 17.2143 5.24061 17.1595 5.12061 17.058Z" fill="#1DE9CE"/>
<path d="M18.163 26.8776C18.1962 26.8942 18.2295 26.9108 18.2637 26.9279C18.2637 26.9612 18.2637 26.9944 18.2637 27.0286C18.1914 27.0697 18.119 27.1106 18.0466 27.1514C18.0062 27.1742 17.9659 27.1969 17.9244 27.2204C17.8105 27.2804 17.8105 27.2804 17.6594 27.3308C17.5493 27.2836 17.5493 27.2836 17.458 27.2301C17.5732 27.1698 17.6886 27.1101 17.8042 27.0507C17.8534 27.0248 17.8534 27.0248 17.9035 26.9984C17.9885 26.9551 18.0757 26.916 18.163 26.8776Z" fill="#18BAC3"/>
<path d="M11.5664 11.3172C11.8068 11.3517 12.0134 11.4434 12.2336 11.5407C12.2705 11.5564 12.3074 11.5721 12.3454 11.5884C12.6177 11.7076 12.6177 11.7076 12.6743 11.8208C12.3113 11.7409 11.9924 11.6497 11.6671 11.4683C11.6671 11.435 11.6671 11.4018 11.6671 11.3676C11.6339 11.3509 11.6006 11.3343 11.5664 11.3172Z" fill="#1EEFCE"/>
<path d="M4.76807 27.4818C5.04296 27.5388 5.28375 27.681 5.53286 27.806C5.58437 27.8313 5.63588 27.8567 5.68895 27.8828C5.76232 27.9195 5.76232 27.9195 5.83717 27.9569C5.88204 27.9792 5.9269 28.0016 5.97313 28.0246C6.07735 28.0861 6.07735 28.0861 6.1277 28.1868C5.86365 28.1063 5.62653 27.9899 5.38297 27.8628C5.23984 27.7894 5.1048 27.7288 4.95061 27.6817C4.90699 27.6656 4.86337 27.6495 4.81842 27.6329C4.80181 27.583 4.78519 27.5332 4.76807 27.4818Z" fill="#1AB5B9"/>
<path d="M13.8323 16.7557C13.6669 16.8907 13.4934 16.98 13.3004 17.0705C13.2433 17.0977 13.1861 17.125 13.1271 17.1531C12.9763 17.209 12.9763 17.209 12.8252 17.1586C12.8917 17.142 12.9581 17.1254 13.0266 17.1082C13.0266 17.075 13.0266 17.0418 13.0266 17.0075C13.549 16.7185 13.549 16.7185 13.8323 16.7557Z" fill="#1EE7CC"/>
<path d="M11.5161 9.6051C11.8165 9.63067 12.0518 9.72525 12.3218 9.85689C12.3218 9.89012 12.3218 9.92336 12.3218 9.9576C12.3696 9.97214 12.4174 9.98668 12.4666 10.0017C12.624 10.0583 12.624 10.0583 12.7247 10.159C12.5065 10.1266 12.3285 10.0488 12.1298 9.95445C12.0714 9.92687 12.0129 9.89928 11.9526 9.87085C11.9083 9.84963 11.8639 9.8284 11.8183 9.80653C11.8183 9.77329 11.8183 9.74006 11.8183 9.70582C11.6687 9.68089 11.6687 9.68089 11.5161 9.65546C11.5161 9.63884 11.5161 9.62222 11.5161 9.6051Z" fill="#1FEECE"/>
<path d="M1.19287 26.7769C1.36188 26.8466 1.4346 26.9156 1.52649 27.0727C1.54687 27.1068 1.56725 27.141 1.58825 27.1762C1.62632 27.2448 1.66284 27.3143 1.69762 27.3847C1.75039 27.4938 1.75039 27.4938 1.84751 27.6329C1.6467 27.5562 1.55839 27.4339 1.43521 27.2615C1.38273 27.1893 1.38273 27.1893 1.32919 27.1156C1.25443 26.9962 1.21466 26.9141 1.19287 26.7769Z" fill="#1AB4BA"/>
<path d="M15.8467 11.569C16.1319 11.5874 16.3506 11.6222 16.602 11.7705C16.602 11.8037 16.602 11.8369 16.602 11.8712C16.7017 11.9044 16.8014 11.9376 16.9042 11.9719C16.7271 12.0309 16.7028 12.014 16.5401 11.939C16.4997 11.9207 16.4593 11.9024 16.4176 11.8835C16.3757 11.8638 16.3337 11.8442 16.2905 11.824C16.2479 11.8045 16.2053 11.7851 16.1615 11.765C16.0564 11.7169 15.9514 11.6684 15.8467 11.6194C15.8467 11.6028 15.8467 11.5862 15.8467 11.569Z" fill="#1DF2D2"/>
<path d="M18.2137 28.5897C18.247 28.6063 18.2802 28.623 18.3145 28.6401C18.1594 28.7233 18.004 28.8061 17.8487 28.8887C17.8047 28.9123 17.7608 28.9359 17.7155 28.9602C17.6517 28.9941 17.6517 28.9941 17.5866 29.0286C17.5476 29.0494 17.5086 29.0702 17.4684 29.0917C17.3642 29.1406 17.2686 29.1706 17.1562 29.194C17.2066 29.0429 17.2066 29.0429 17.3807 28.9546C17.4536 28.9237 17.5267 28.8934 17.6 28.8635C17.6728 28.8331 17.7455 28.8026 17.8182 28.7721C17.8522 28.758 17.8863 28.744 17.9214 28.7296C18.0186 28.6892 18.0186 28.6892 18.1325 28.6261C18.1593 28.6141 18.1861 28.6021 18.2137 28.5897Z" fill="#1AABB7"/>
<path d="M11.5663 28.1868C11.583 28.1868 11.5996 28.1868 11.6167 28.1868C11.623 28.3064 11.623 28.3064 11.6167 28.4386C11.3781 28.6773 11.0631 28.6531 10.7459 28.6583C10.5939 28.6379 10.5502 28.6084 10.4585 28.489C10.4867 28.497 10.5148 28.5049 10.5439 28.5132C10.826 28.5768 11.0812 28.5819 11.3397 28.4481C11.4729 28.3412 11.4729 28.3412 11.5663 28.1868Z" fill="#1CC7D2"/>
<path d="M18.9692 26.4243C18.9858 26.4742 19.0024 26.524 19.0195 26.5754C18.9484 26.6251 18.877 26.6743 18.8055 26.7233C18.7459 26.7645 18.7459 26.7645 18.6851 26.8065C18.5737 26.8731 18.4938 26.9149 18.3649 26.9279C18.3316 26.8947 18.2984 26.8614 18.2642 26.8272C18.4968 26.6942 18.7295 26.5613 18.9692 26.4243Z" fill="#1ABAC2"/>
<path d="M1.64622 13.684C1.64622 13.8695 1.58516 13.9057 1.46722 14.0385C1.32222 14.2352 1.2365 14.4667 1.14265 14.6912C1.07701 14.4942 1.12472 14.4291 1.2056 14.2411C1.22767 14.1887 1.24974 14.1363 1.27248 14.0824C1.33706 13.9502 1.39695 13.8435 1.49515 13.7344C1.54501 13.7178 1.59486 13.7011 1.64622 13.684Z" fill="#1FEED2"/>
<path d="M8.39403 12.123C8.42726 12.1396 8.4605 12.1562 8.49474 12.1733C8.44489 12.19 8.39503 12.2066 8.34367 12.2237C8.34367 12.2569 8.34367 12.2902 8.34367 12.3244C8.14426 12.4075 7.94484 12.4906 7.73939 12.5762C7.70615 12.543 7.67291 12.5097 7.63867 12.4755C7.73618 12.4261 7.83376 12.3768 7.93137 12.3276C7.9857 12.3001 8.04004 12.2726 8.09602 12.2444C8.24296 12.1733 8.24296 12.1733 8.39403 12.123Z" fill="#1CEECE"/>
<path d="M2.80437 13.0294C2.68183 13.0969 2.55907 13.164 2.43614 13.2308C2.40138 13.25 2.36662 13.2692 2.3308 13.289C2.06613 13.4322 2.06613 13.4322 1.89795 13.4322C2.10495 13.2069 2.47546 12.8649 2.80437 13.0294Z" fill="#1EEDCF"/>
<path d="M20.6809 26.1222C20.7142 26.1554 20.7474 26.1887 20.7816 26.2229C20.7709 26.5355 20.684 26.7591 20.5298 27.0286C20.5132 27.0286 20.4966 27.0286 20.4795 27.0286C20.5141 26.7168 20.5943 26.4233 20.6809 26.1222Z" fill="#1BBBC5"/>
<path d="M3.25781 14.4897C3.5082 14.5648 3.7321 14.6712 3.96281 14.7918C3.96281 14.8251 3.96281 14.8583 3.96281 14.8925C4.02928 14.9258 4.09575 14.959 4.16424 14.9933C3.91952 14.9627 3.72409 14.8559 3.5096 14.7415C3.5096 14.7082 3.5096 14.675 3.5096 14.6408C3.42651 14.6241 3.34342 14.6075 3.25781 14.5904C3.25781 14.5572 3.25781 14.5239 3.25781 14.4897Z" fill="#1DECCD"/>
<path d="M19.9765 27.6832C19.897 27.7413 19.8172 27.7989 19.7373 27.8563C19.6707 27.9045 19.6707 27.9045 19.6027 27.9537C19.4867 28.0271 19.4053 28.0639 19.2715 28.0861C19.3093 27.9885 19.3093 27.9885 19.3722 27.8847C19.4792 27.8469 19.4792 27.8469 19.5736 27.8343C19.5736 27.8011 19.5736 27.7678 19.5736 27.7336C19.8632 27.6266 19.8632 27.6266 19.9765 27.6832Z" fill="#19B2BE"/>
<path d="M15.2427 12.979C15.4788 13.007 15.6556 13.0738 15.8658 13.1836C15.9192 13.2112 15.9726 13.2388 16.0275 13.2672C16.0677 13.2884 16.1078 13.3096 16.1491 13.3315C16.1491 13.3481 16.1491 13.3647 16.1491 13.3819C15.7011 13.3371 15.7011 13.3371 15.5448 13.2308C15.5282 13.1976 15.5116 13.1643 15.4945 13.1301C15.4117 13.0937 15.3278 13.0599 15.2427 13.0294C15.2427 13.0127 15.2427 12.9961 15.2427 12.979Z" fill="#1EEFCE"/>
<path d="M9.09876 17.1587C9.24832 17.2252 9.39788 17.2916 9.55197 17.3601C9.55197 17.3934 9.55197 17.4266 9.55197 17.4608C9.65168 17.4941 9.75139 17.5273 9.85412 17.5615C9.70304 17.6119 9.70304 17.6119 9.53407 17.5397C9.46949 17.5066 9.40517 17.4729 9.3411 17.4388C9.30816 17.4218 9.27522 17.4047 9.24127 17.3872C9.15996 17.345 9.07897 17.3023 8.99805 17.2594C9.03128 17.2262 9.06452 17.1929 9.09876 17.1587Z" fill="#1EE8D0"/>
<path d="M15.9977 27.9854C16.0309 28.002 16.0641 28.0186 16.0984 28.0358C15.9197 28.2611 15.7087 28.3109 15.4437 28.3883C15.3845 28.408 15.3253 28.4277 15.2643 28.4481C15.2238 28.4616 15.1833 28.4751 15.1416 28.489C15.279 28.3247 15.4599 28.2422 15.6483 28.1491C15.6804 28.1325 15.7125 28.116 15.7456 28.0989C15.828 28.0577 15.9127 28.0212 15.9977 27.9854Z" fill="#18B1B9"/>
<path d="M17.4077 12.2237C17.612 12.2473 17.7837 12.268 17.9616 12.3748C17.9616 12.408 17.9616 12.4412 17.9616 12.4755C18.0281 12.5087 18.0946 12.5419 18.1631 12.5762C17.8683 12.5535 17.6554 12.4232 17.4077 12.2741C17.4077 12.2574 17.4077 12.2408 17.4077 12.2237Z" fill="#1DF1D0"/>
<path d="M6.58105 19.9786C6.85525 20.0534 6.85525 20.0534 7.13498 20.1297C7.13498 20.1629 7.13498 20.1962 7.13498 20.2304C7.18276 20.245 7.23053 20.2595 7.27976 20.2745C7.43712 20.3311 7.43712 20.3311 7.53784 20.4319C7.30855 20.4007 7.12065 20.3076 6.91782 20.2021C6.88533 20.1855 6.85284 20.1689 6.81937 20.1518C6.73979 20.1112 6.6604 20.0701 6.58105 20.029C6.58105 20.0124 6.58105 19.9958 6.58105 19.9786Z" fill="#1FE9D5"/>
<path d="M20.6812 1.44733C20.88 1.47896 21.0437 1.54122 21.2256 1.62672C21.2993 1.66109 21.2993 1.66109 21.3745 1.69616C21.4301 1.72255 21.4301 1.72255 21.4869 1.74947C21.2817 1.81784 21.1544 1.77125 20.9518 1.70855C20.8169 1.6411 20.761 1.57344 20.6812 1.44733Z" fill="#1EE9C9"/>
<path d="M4.01261 14.1372C4.01261 14.1704 4.01261 14.2037 4.01261 14.2379C3.77116 14.3768 3.58025 14.4158 3.30762 14.4393C3.37792 14.2988 3.4589 14.2882 3.60346 14.2316C3.64799 14.2138 3.69253 14.1961 3.73841 14.1777C3.86154 14.1372 3.86154 14.1372 4.01261 14.1372Z" fill="#1CECCC"/>
<path d="M2.95563 26.525C3.17894 26.5952 3.30177 26.7066 3.4592 26.8775C3.24802 26.8437 3.08639 26.7337 2.90527 26.6257C2.92189 26.5925 2.93851 26.5593 2.95563 26.525Z" fill="#1BC5C9"/>
<path d="M13.9837 30.9061C13.8938 30.958 13.8035 31.0093 13.7131 31.0603C13.6377 31.1033 13.6377 31.1033 13.5608 31.1471C13.5176 31.1673 13.4744 31.1874 13.4298 31.2082C13.3966 31.1916 13.3633 31.175 13.3291 31.1579C13.4401 30.9913 13.4743 30.9766 13.6564 30.9187C13.6964 30.9054 13.7364 30.8922 13.7776 30.8786C13.883 30.8557 13.883 30.8557 13.9837 30.9061Z" fill="#19A8B6"/>
<path d="M8.39411 29.3954C8.56249 29.4234 8.69792 29.4635 8.84732 29.5465C8.84732 29.5797 8.84732 29.6129 8.84732 29.6472C8.67726 29.6201 8.51009 29.5912 8.34375 29.5465C8.36037 29.4966 8.37699 29.4467 8.39411 29.3954Z" fill="#19BCC5"/>
<path d="M17.6595 16.6551C17.6263 16.6551 17.5931 16.6551 17.5588 16.6551C17.5588 16.6883 17.5588 16.7216 17.5588 16.7558C17.4855 16.7825 17.4121 16.8086 17.3385 16.8345C17.2772 16.8564 17.2772 16.8564 17.2146 16.8788C17.1056 16.9069 17.1056 16.9069 17.0049 16.8565C17.0853 16.8129 17.1662 16.77 17.2472 16.7275C17.2922 16.7035 17.3372 16.6796 17.3835 16.6549C17.5085 16.6047 17.5085 16.6047 17.6595 16.6551Z" fill="#1EEBCE"/>
<path d="M27.2778 6.98657C27.4435 7.12743 27.5328 7.29855 27.6303 7.49014C27.6137 7.52338 27.5971 7.55661 27.58 7.59086C27.5634 7.541 27.5467 7.49115 27.5296 7.43978C27.4798 7.42317 27.4299 7.40655 27.3785 7.38943C27.3418 7.29639 27.3418 7.29639 27.3187 7.18485C27.3108 7.14792 27.3028 7.11098 27.2946 7.07293C27.289 7.04443 27.2835 7.01593 27.2778 6.98657Z" fill="#1EE0C2"/>
<path d="M1.89791 13.3315C1.93114 13.3482 1.96438 13.3648 1.99862 13.3819C1.7755 13.6732 1.7755 13.6732 1.63039 13.7281C1.60234 13.7302 1.5743 13.7323 1.54541 13.7344C1.62049 13.5433 1.7346 13.4519 1.89791 13.3315Z" fill="#1FE2C7"/>
<path d="M16.6022 27.7839C16.5856 27.8338 16.569 27.8836 16.5518 27.935C16.4588 27.9718 16.4588 27.9718 16.3473 27.9948C16.3103 28.0028 16.2734 28.0108 16.2353 28.019C16.1926 28.0273 16.1926 28.0273 16.149 28.0357C16.1324 28.0025 16.1158 27.9692 16.0986 27.935C16.1636 27.9096 16.2287 27.8845 16.2938 27.8595C16.3481 27.8384 16.3481 27.8384 16.4035 27.817C16.5015 27.7839 16.5015 27.7839 16.6022 27.7839Z" fill="#1AC1CB"/>
<path d="M3.10693 16.1011C3.18156 16.1238 3.25602 16.1469 3.33039 16.1704C3.37187 16.1832 3.41335 16.1961 3.45609 16.2093C3.56015 16.2522 3.56015 16.2522 3.6105 16.3529C3.30561 16.3332 3.30561 16.3332 3.20765 16.3026C3.14431 16.1995 3.14431 16.1995 3.10693 16.1011Z" fill="#1DEBCE"/>
<path d="M19.4727 13.1804C19.8011 13.2114 19.8011 13.2114 19.9227 13.3095C19.9404 13.3333 19.958 13.3572 19.9762 13.3818C19.7948 13.4026 19.7353 13.3896 19.5828 13.2811C19.5465 13.2479 19.5101 13.2147 19.4727 13.1804Z" fill="#1CEFCE"/>
<path d="M19.2207 8.49725C19.444 8.56744 19.5668 8.67883 19.7243 8.84975C19.5021 8.78915 19.3697 8.72528 19.2207 8.54761C19.2207 8.53099 19.2207 8.51437 19.2207 8.49725Z" fill="#1CE6C6"/>
<path d="M21.5874 5.92902C21.8308 5.94987 21.9312 6.0531 22.091 6.23116C21.8678 6.17031 21.7394 6.10443 21.5874 5.92902Z" fill="#1CEDC9"/>
<path d="M9.70319 30.05C9.90019 30.1083 10.0494 30.1687 10.2068 30.3018C9.82869 30.2708 9.82869 30.2708 9.70319 30.1728C9.68657 30.1489 9.66995 30.125 9.65283 30.1004C9.66945 30.0838 9.68607 30.0672 9.70319 30.05Z" fill="#17B4BE"/>
<path d="M15.3433 17.6119C15.3765 17.6285 15.4098 17.6451 15.444 17.6622C15.3941 17.6789 15.3443 17.6955 15.2929 17.7126C15.2929 17.7458 15.2929 17.7791 15.2929 17.8133C15.2098 17.8465 15.1268 17.8798 15.0411 17.914C15.0079 17.8808 14.9747 17.8475 14.9404 17.8133C15.0052 17.7782 15.0703 17.7437 15.1356 17.7094C15.1718 17.6902 15.208 17.6709 15.2453 17.651C15.2777 17.6381 15.31 17.6252 15.3433 17.6119Z" fill="#1FE4CA"/>
<path d="M16.1992 13.3819C16.2728 13.4046 16.3462 13.4278 16.4195 13.4511C16.4604 13.464 16.5013 13.4768 16.5435 13.4901C16.6524 13.533 16.6524 13.533 16.7531 13.6337C16.4636 13.64 16.4636 13.64 16.3503 13.5833C16.3503 13.5501 16.3503 13.5169 16.3503 13.4826C16.3004 13.466 16.2506 13.4494 16.1992 13.4323C16.1992 13.4156 16.1992 13.399 16.1992 13.3819Z" fill="#1FF5D5"/>
<path d="M7.18555 28.7408C7.35548 28.7683 7.44148 28.7939 7.5884 28.8919C7.57178 28.9417 7.55517 28.9916 7.53805 29.0429C7.36848 28.9728 7.28697 28.8929 7.18555 28.7408Z" fill="#1ABBC2"/>
<path d="M7.23584 16.4033C7.31893 16.4033 7.40202 16.4033 7.48762 16.4033C7.48762 16.4366 7.48762 16.4698 7.48762 16.504C7.58733 16.5373 7.68704 16.5705 7.78977 16.6047C7.6387 16.6551 7.6387 16.6551 7.53582 16.616C7.50018 16.5967 7.46454 16.5774 7.42783 16.5575C7.3918 16.5384 7.35577 16.5192 7.31865 16.4995C7.29132 16.4844 7.264 16.4693 7.23584 16.4537C7.23584 16.4371 7.23584 16.4204 7.23584 16.4033Z" fill="#1DEDD2"/>
<path d="M14.3863 30.6544C14.2543 30.7628 14.1525 30.8256 13.9835 30.8558C13.9668 30.8225 13.9502 30.7893 13.9331 30.7551C14.091 30.6615 14.2038 30.6442 14.3863 30.6544Z" fill="#18B0BD"/>
<path d="M17.9619 14.1876C18.1115 14.2374 18.261 14.2873 18.4151 14.3386C18.4151 14.3552 18.4151 14.3719 18.4151 14.389C18.1372 14.4075 18.1372 14.4075 18.0186 14.3166C17.9619 14.2379 17.9619 14.2379 17.9619 14.1876Z" fill="#1CF1D1"/>
<path d="M27.832 7.99365C27.978 8.11426 28.0083 8.21081 28.0334 8.39651C27.8823 8.34615 27.8823 8.34615 27.8194 8.22341C27.7816 8.09437 27.7816 8.09437 27.832 7.99365Z" fill="#1EE3C6"/>
<path d="M22.5444 2.3537C22.7144 2.41341 22.8288 2.4683 22.9473 2.60548C22.8025 2.59289 22.8025 2.59289 22.6451 2.55513C22.5759 2.45127 22.5759 2.45127 22.5444 2.3537Z" fill="#1EEBC9"/>
<path d="M21.2856 14.3387C21.4367 14.389 21.4367 14.389 21.4367 14.389L21.2856 14.3387Z" fill="#24EECE"/>
<path d="M16.4507 29.6472C16.5514 29.6975 16.5514 29.6975 16.5514 29.6975L16.4507 29.6472Z" fill="#1DB4BE"/>
<path d="M11.4658 17.6119C11.5665 17.6622 11.5665 17.6622 11.5665 17.6622L11.4658 17.6119Z" fill="#25E7CD"/>
<path d="M16.7031 15.1948C16.8038 15.2451 16.8038 15.2451 16.8038 15.2451L16.7031 15.1948Z" fill="#22ECD0"/>
<path d="M24.9614 14.2883C25.0621 14.3386 25.0621 14.3386 25.0621 14.3386L24.9614 14.2883Z" fill="#2BDDC4"/>
<path d="M20.3784 13.6336C20.4791 13.684 20.4791 13.684 20.4791 13.684L20.3784 13.6336Z" fill="#22EDCE"/>
<path d="M17.9111 4.0155C18.0118 4.06586 18.0118 4.06586 18.0118 4.06586L17.9111 4.0155Z" fill="#21F5D3"/>
</svg>
