<svg width="12" height="14" viewBox="0 0 12 14" fill="none" xmlns="http://www.w3.org/2000/svg">
<path d="M8.16 0H5.564C4.388 0 3.456 0 2.72733 0.0986667C1.97667 0.2 1.36933 0.413333 0.890667 0.894C0.411333 1.37467 0.198667 1.98467 0.098 2.738C4.96705e-08 3.47 0 4.40533 0 5.586V9.478C0 10.4833 0.613333 11.3447 1.48467 11.706C1.44 11.0993 1.44 10.2493 1.44 9.54133V6.20133C1.44 5.34733 1.44 4.61067 1.51867 4.02133C1.60333 3.38933 1.794 2.784 2.28333 2.29267C2.77267 1.80133 3.376 1.61 4.00533 1.52467C4.592 1.446 5.32533 1.446 6.17667 1.446H8.22333C9.074 1.446 9.806 1.446 10.3933 1.52467C10.2174 1.07553 9.91022 0.689825 9.51184 0.417855C9.11345 0.145885 8.64236 0.000270549 8.16 0Z" fill="#565656"/>
<path d="M2.3999 6.26464C2.3999 4.4473 2.3999 3.53864 2.96257 2.97397C3.52457 2.4093 4.42924 2.4093 6.2399 2.4093H8.1599C9.9699 2.4093 10.8752 2.4093 11.4379 2.97397C12.0006 3.53864 11.9999 4.4473 11.9999 6.26464V9.47797C11.9999 11.2953 11.9999 12.204 11.4379 12.7686C10.8752 13.3333 9.9699 13.3333 8.1599 13.3333H6.2399C4.4299 13.3333 3.52457 13.3333 2.96257 12.7686C2.3999 12.204 2.3999 11.2953 2.3999 9.47797V6.26464Z" fill="#565656"/>
</svg>
