<svg width="13" height="13" viewBox="0 0 13 13" fill="none" xmlns="http://www.w3.org/2000/svg">
<path d="M6.5 0C10.0899 0 13 2.91005 13 6.5C13 10.0899 10.0899 13 6.5 13C2.91005 13 0 10.0899 0 6.5C3.8653e-08 2.91005 2.91005 3.86542e-08 6.5 0ZM3.5752 5.52539C3.03673 5.52539 2.6006 5.96153 2.60059 6.5C2.60059 7.03848 3.03672 7.47461 3.5752 7.47461C4.11363 7.47456 4.5498 7.03844 4.5498 6.5C4.54979 5.96157 4.11362 5.52544 3.5752 5.52539ZM6.5 5.52539C5.96153 5.52539 5.5254 5.96153 5.52539 6.5C5.52539 7.03848 5.96152 7.47461 6.5 7.47461C7.03843 7.47456 7.47461 7.03844 7.47461 6.5C7.4746 5.96157 7.03842 5.52544 6.5 5.52539ZM9.4248 5.52539C8.8864 5.52547 8.45021 5.96158 8.4502 6.5C8.4502 7.03843 8.88639 7.47453 9.4248 7.47461C9.96328 7.47461 10.4004 7.03848 10.4004 6.5C10.4004 5.96153 9.96327 5.52539 9.4248 5.52539Z" fill="#D5A656"/>
</svg>
